<svg width="24" height="22" viewBox="0 0 24 22" fill="none" xmlns="http://www.w3.org/2000/svg">
<path d="M24.0047 11.0097C24.0047 11.0478 24.0047 11.0858 24.0047 11.1239C23.9859 12.6677 22.4297 13.7166 20.7188 13.7166H16.1297C14.8875 13.7166 13.8797 14.626 13.8797 15.7468C13.8797 15.8906 13.8984 16.0302 13.9266 16.1655C14.025 16.5969 14.2312 17.0114 14.4328 17.4302C14.7187 18.0138 15 18.5933 15 19.2066C15 20.5516 13.9875 21.7739 12.4969 21.8289C12.3328 21.8331 12.1687 21.8374 12 21.8374C5.37188 21.8374 0 16.9903 0 11.0097C0 5.02909 5.37656 0.182007 12.0047 0.182007C18.6328 0.182007 24.0047 5.02909 24.0047 11.0097ZM6.00469 12.3631C6.00469 11.6145 5.33437 11.0097 4.50469 11.0097C3.675 11.0097 3.00469 11.6145 3.00469 12.3631C3.00469 13.1118 3.675 13.7166 4.50469 13.7166C5.33437 13.7166 6.00469 13.1118 6.00469 12.3631ZM6.00469 8.30277C6.83438 8.30277 7.50469 7.69794 7.50469 6.94931C7.50469 6.20067 6.83438 5.59585 6.00469 5.59585C5.175 5.59585 4.50469 6.20067 4.50469 6.94931C4.50469 7.69794 5.175 8.30277 6.00469 8.30277ZM13.5047 4.24239C13.5047 3.49375 12.8344 2.88893 12.0047 2.88893C11.175 2.88893 10.5047 3.49375 10.5047 4.24239C10.5047 4.99102 11.175 5.59585 12.0047 5.59585C12.8344 5.59585 13.5047 4.99102 13.5047 4.24239ZM18.0047 8.30277C18.8344 8.30277 19.5047 7.69794 19.5047 6.94931C19.5047 6.20067 18.8344 5.59585 18.0047 5.59585C17.175 5.59585 16.5047 6.20067 16.5047 6.94931C16.5047 7.69794 17.175 8.30277 18.0047 8.30277Z" fill="black"/>
</svg>
