<svg width="46" height="46" viewBox="0 0 46 46" fill="none" xmlns="http://www.w3.org/2000/svg">
<path d="M23.3789 30.5117C22.084 28.2617 19.6523 26.75 16.875 26.75H13.125C10.3477 26.75 7.91602 28.2617 6.62109 30.5117C8.68359 32.8086 11.6719 34.25 15 34.25C18.3281 34.25 21.3164 32.8027 23.3789 30.5117ZM0 23C0 14.7148 6.71484 8 15 8C23.2852 8 30 14.7148 30 23C30 31.2852 23.2852 38 15 38C6.71484 38 0 31.2852 0 23ZM15 23.9375C17.332 23.9375 19.2188 22.0508 19.2188 19.7188C19.2188 17.3867 17.332 15.5 15 15.5C12.668 15.5 10.7812 17.3867 10.7812 19.7188C10.7812 22.0508 12.668 23.9375 15 23.9375Z" fill="white"/>
</svg>
