<svg width="31" height="33" viewBox="0 0 31 33" fill="none" xmlns="http://www.w3.org/2000/svg">
<path d="M5.94238 18.0418C6.74606 17.8498 7.44502 17.7168 8.1231 17.5146C11.959 16.3699 14.34 13.7766 15.4218 9.99856C15.805 8.66042 15.9383 7.25109 16.1837 5.874C16.2022 5.7699 16.2066 5.66312 16.2905 5.54358C16.3076 5.64566 16.3302 5.74707 16.3416 5.84982C16.6005 8.14128 17.0867 10.3726 18.1426 12.4455C19.8196 15.738 22.5313 17.5408 26.1907 17.9629C26.2655 17.9717 26.3396 17.9874 26.4247 18.0841C26.2113 18.1231 25.9975 18.1594 25.7847 18.2013C22.4108 18.8635 19.7331 20.5213 18.0725 23.6076C17.0066 25.5888 16.5376 27.7389 16.3383 29.9588C16.3208 30.1536 16.3056 30.3484 16.2356 30.5357C16.079 29.6009 15.9514 28.66 15.7602 27.7322C15.3285 25.6402 14.6127 23.6566 13.3131 21.9303C11.5906 19.6419 9.23855 18.4619 6.42923 18.1117C6.3023 18.0966 6.17604 18.0758 5.94238 18.0418Z" fill="white"/>
<path d="M4.05241 11.4462C3.71067 9.46907 2.6629 8.21723 0.596313 7.92441C1.48281 7.72495 2.30298 7.4496 2.95413 6.82099C3.61673 6.18097 3.90527 5.367 4.06554 4.44995C4.40862 6.40998 5.4702 7.64873 7.52736 7.93617C5.52272 8.29849 4.32277 9.40258 4.05241 11.4462Z" fill="white"/>
<path d="M4.06349 25.5522C4.41668 27.5156 5.47051 28.747 7.5317 29.0321C5.54929 29.3931 4.32846 30.477 4.05575 32.5321C3.69785 30.571 2.66456 29.3068 0.584839 29.0284C2.56018 28.6694 3.78471 27.6009 4.06349 25.5522Z" fill="white"/>
<path d="M23.3774 3.48386C25.3481 3.12792 26.5568 2.04834 26.8379 0C27.1813 1.97883 28.2537 3.21657 30.4152 3.46976C27.8274 4.26459 27.4376 4.65411 26.8056 7.08895C26.476 5.02449 25.4353 3.77836 23.3774 3.48386Z" fill="white"/>
</svg>
