<svg width="28" height="30" viewBox="0 0 28 30" fill="none" xmlns="http://www.w3.org/2000/svg">
<path d="M21.0034 0.327708C21.7099 0.788448 21.9712 1.62421 21.6506 2.35282L16.9956 12.8588H25.5871C26.3887 12.8588 27.1012 13.3088 27.3743 13.9892C27.6474 14.6696 27.4159 15.4304 26.8043 15.8911L9.70431 28.749C9.03337 29.2526 8.07743 29.2794 7.37087 28.8186C6.66431 28.3579 6.40306 27.5221 6.72368 26.7935L11.3787 16.2875H2.78712C1.98556 16.2875 1.27306 15.8375 0.999934 15.1571C0.726809 14.4767 0.958372 13.716 1.56993 13.2552L18.6699 0.397355C19.3409 -0.106245 20.2968 -0.133032 21.0034 0.327708Z" fill="white"/>
</svg>
